<svg width="169" height="48" viewBox="0 0 169 48" fill="none" xmlns="http://www.w3.org/2000/svg">
<path fill-rule="evenodd" clip-rule="evenodd" d="M7.84413 7.85535H23.3457L23.3445 23.216H7.84413V7.85535Z" fill="#F1511B"/>
<path fill-rule="evenodd" clip-rule="evenodd" d="M24.9284 7.85535H40.43C40.43 12.9755 40.4309 18.0958 40.4291 23.216C35.2628 23.2151 30.0956 23.216 24.9293 23.216C24.9275 18.0958 24.9284 12.9755 24.9284 7.85535Z" fill="#80CC28"/>
<path fill-rule="evenodd" clip-rule="evenodd" d="M147.633 13.7082C149.062 12.7866 150.908 12.7005 152.519 13.1397C152.533 14.0884 152.521 15.0376 152.525 15.9866C151.76 15.6529 150.859 15.4351 150.054 15.7625C149.415 16.0137 149.035 16.6632 148.936 17.3124C148.816 18.1362 148.894 18.9711 148.874 19.7997C150.509 19.8033 152.143 19.8006 153.778 19.8015C153.791 18.7497 153.765 17.6971 153.792 16.6453C154.904 16.3322 156.003 15.9803 157.11 15.6502C157.119 17.0356 157.097 18.4223 157.122 19.8089C158.227 19.7931 159.333 19.8053 160.439 19.8015V22.4994C159.329 22.4538 158.218 22.4868 157.109 22.4833C157.113 24.0344 157.109 25.5852 157.11 27.1366C157.128 27.9956 157.064 28.859 157.165 29.7153C157.227 30.22 157.412 30.7793 157.889 31.0403C158.69 31.4839 159.704 31.2903 160.439 30.8031V33.5272C159.481 33.9396 158.41 34.0653 157.374 33.9923C156.391 33.9202 155.372 33.5663 154.731 32.791C153.99 31.9157 153.799 30.7301 153.784 29.6212C153.776 27.2412 153.785 24.8609 153.78 22.4797C152.144 22.4785 150.509 22.4779 148.874 22.4806C148.872 26.2159 148.873 29.9516 148.873 33.6872H145.52C145.52 29.9522 145.515 26.2189 145.522 22.4845C144.744 22.4696 143.966 22.488 143.189 22.4723C143.192 21.5859 143.195 20.6983 143.187 19.8107C143.961 19.7931 144.735 19.8006 145.511 19.8062C145.568 18.627 145.386 17.414 145.742 16.2654C146.042 15.2286 146.711 14.293 147.633 13.7082ZM75.8527 13.9018C76.5286 13.8002 77.2601 14.0291 77.7082 14.5531C78.2334 15.127 78.3303 16.0402 77.9409 16.7112C77.5106 17.4674 76.5481 17.8189 75.7092 17.6375C74.8388 17.4825 74.1135 16.6805 74.1523 15.7866C74.1274 14.8457 74.9215 14.007 75.8527 13.9015V13.9018ZM50.159 14.3133H55.0348C56.5524 18.1321 58.081 21.9464 59.6006 25.7649C59.9888 26.7201 60.352 27.6857 60.7589 28.6332C62.7112 23.8619 64.6914 19.1025 66.6287 14.3243C68.1923 14.2993 69.7561 14.3187 71.3202 14.3151C71.3166 20.7722 71.3184 27.229 71.3196 33.686C70.1912 33.6834 69.0636 33.6956 67.9361 33.6795C67.9481 28.9147 67.9352 24.1497 67.9418 19.3837C67.9436 19.1695 67.9361 18.9553 67.921 18.7417C67.8549 18.8412 67.7966 18.9446 67.7454 19.0518C65.8076 23.9289 63.833 28.7926 61.9069 33.6747C61.1043 33.7036 60.3009 33.6768 59.4972 33.6893C57.4986 28.8122 55.5246 23.9235 53.5359 19.0423C53.4836 18.9407 53.428 18.8421 53.3673 18.7473C53.3264 20.8347 53.3609 22.9242 53.3498 25.0122C53.3504 27.9035 53.348 30.7948 53.3504 33.686C52.2866 33.6887 51.2225 33.686 50.159 33.6872C50.1581 27.229 50.1572 20.771 50.159 14.3133ZM85.0793 19.7887C86.697 19.3319 88.4421 19.3504 90.0592 19.8033C90.3926 19.8956 90.7153 20.0237 91.0156 20.1983C90.9967 21.2563 91.0156 22.3155 91.0051 23.3747C89.9239 22.5563 88.5528 22.0378 87.1787 22.2095C86.0872 22.3072 85.0466 22.8682 84.3941 23.7418C83.5549 24.8248 83.3612 26.263 83.5059 27.588C83.6138 28.6248 84.0465 29.6611 84.8604 30.3485C85.7056 31.0927 86.8906 31.3564 87.9968 31.2736C89.0901 31.149 90.1217 30.6902 91.0051 30.0499C91.0144 31.0528 91.0003 32.0557 91.0126 33.0586C89.6418 33.8669 87.9989 34.0752 86.43 33.9992C84.8249 33.9149 83.2244 33.3124 82.0626 32.1942C80.8001 30.9884 80.1148 29.2687 80.0336 27.5466C79.9518 25.7556 80.3196 23.8875 81.3596 22.3921C82.231 21.116 83.5943 20.2129 85.0793 19.7887ZM121.701 19.5774C123.251 19.3069 124.874 19.5053 126.341 20.0562C126.343 21.0749 126.341 22.0921 126.342 23.1099C125.317 22.4115 124.065 22.0358 122.821 22.0793C122.194 22.1034 121.505 22.3665 121.219 22.9567C120.992 23.5407 121.15 24.3064 121.706 24.6562C122.656 25.2864 123.79 25.5539 124.775 26.1182C125.55 26.5502 126.303 27.1145 126.696 27.9285C127.434 29.4525 127.122 31.4666 125.823 32.6033C124.584 33.7507 122.8 34.068 121.158 34.0072C119.992 33.9324 118.821 33.7045 117.75 33.232C117.754 32.1612 117.743 31.0909 117.755 30.0207C118.657 30.6693 119.696 31.1332 120.797 31.3215C121.563 31.4449 122.397 31.4509 123.11 31.1112C123.794 30.7745 123.917 29.8122 123.511 29.2234C123.131 28.7696 122.573 28.52 122.047 28.2745C121.06 27.8344 120.021 27.4661 119.154 26.8068C118.544 26.3351 118.082 25.671 117.901 24.9217C117.633 23.8175 117.717 22.573 118.365 21.6079C119.105 20.4832 120.391 19.8089 121.701 19.5774ZM98.5119 20.0148C99.4371 19.4639 100.613 19.4177 101.623 19.7547C101.619 20.8627 101.623 21.9702 101.621 23.0783C100.959 22.6543 100.135 22.4723 99.3547 22.5509C98.4027 22.6579 97.6486 23.3819 97.258 24.2126C96.8332 25.0915 96.7532 26.0857 96.78 27.0472C96.78 29.2604 96.7812 31.4738 96.78 33.6872H93.4749C93.4722 29.0613 93.4788 24.4348 93.4722 19.8089C94.5754 19.7949 95.6789 19.8006 96.7821 19.8059C96.7776 20.6006 96.7821 21.3946 96.7794 22.1901C97.1378 21.3258 97.6712 20.4861 98.5119 20.0145V20.0148ZM74.4569 19.8059C75.5685 19.8015 76.6813 19.7907 77.7927 19.8116C77.7797 24.4369 77.792 29.0622 77.7872 33.6872H74.4587C74.456 29.0604 74.4599 24.4336 74.4569 19.8062V19.8059ZM107.793 19.5497C109.402 19.3468 111.099 19.4374 112.593 20.1107C113.889 20.6899 114.939 21.7611 115.521 23.0437C116.141 24.4083 116.293 25.9421 116.187 27.4229C116.084 28.8683 115.626 30.3169 114.713 31.4655C113.78 32.6852 112.372 33.5117 110.865 33.8189C109.576 34.0847 108.228 34.0835 106.939 33.8154C105.398 33.4885 103.97 32.6021 103.066 31.3123C102.005 29.8178 101.704 27.9175 101.838 26.1266C101.929 24.607 102.406 23.0756 103.386 21.8838C104.458 20.5487 106.104 19.7609 107.793 19.5497ZM108.793 22.1865C107.992 22.2306 107.182 22.4994 106.588 23.0488C105.768 23.7844 105.394 24.8802 105.292 25.9457C105.181 27.1175 105.262 28.3528 105.802 29.4209C106.222 30.2504 106.993 30.902 107.903 31.1389C108.797 31.3686 109.77 31.3493 110.636 31.0197C111.376 30.734 111.962 30.1304 112.283 29.4165C112.766 28.3573 112.814 27.1664 112.755 26.0235C112.672 24.9786 112.372 23.8839 111.597 23.1292C110.873 22.4031 109.801 22.121 108.793 22.1865ZM134.515 19.5449C136.188 19.3396 137.964 19.4508 139.491 20.215C140.823 20.8747 141.855 22.0667 142.37 23.4447C142.774 24.4992 142.915 25.6376 142.892 26.7603C142.895 28.4374 142.438 30.159 141.375 31.4893C140.381 32.7773 138.86 33.6142 137.254 33.877C135.683 34.1288 134.024 34.0635 132.531 33.4814C131.02 32.892 129.763 31.6886 129.126 30.2069C128.462 28.6969 128.392 26.9975 128.599 25.3841C128.816 23.7701 129.553 22.1928 130.81 21.1199C131.84 20.2243 133.165 19.7168 134.515 19.5449ZM135.42 22.1892C134.492 22.2407 133.572 22.6367 132.973 23.3524C132.315 24.1193 132.033 25.1311 131.957 26.1173C131.878 27.1357 131.957 28.1904 132.354 29.1424C132.685 29.9415 133.313 30.636 134.122 30.9756C134.873 31.2959 135.719 31.3528 136.521 31.234C137.269 31.1249 137.993 30.7709 138.48 30.1896C138.963 29.6113 139.218 28.8823 139.346 28.1517C139.509 27.1709 139.51 26.1608 139.319 25.1848C139.148 24.3526 138.777 23.5261 138.105 22.9743C137.378 22.3406 136.367 22.124 135.42 22.1892Z" fill="#282C4B"/>
<path fill-rule="evenodd" clip-rule="evenodd" d="M7.84413 24.7834C13.0113 24.7852 18.1785 24.7829 23.3457 24.7852C23.3466 29.9054 23.3457 35.0248 23.3457 40.145H7.84413V24.7834Z" fill="#00ADEF"/>
<path fill-rule="evenodd" clip-rule="evenodd" d="M24.9293 24.7852C30.0956 24.7834 35.2628 24.7843 40.4299 24.7843V40.145H24.9284C24.9293 35.0247 24.9275 29.9045 24.9293 24.7852Z" fill="#FBBC09"/>
</svg>
