<svg width="176" height="37" viewBox="0 0 176 37" fill="none" xmlns="http://www.w3.org/2000/svg">
<g clip-path="url(#clip0_2_116)">
<path d="M168.159 29.3537C168.822 29.3537 169.213 29.2454 169.459 29.0268C169.649 28.8272 169.745 28.3637 169.745 27.6092V12.149C169.745 11.3579 169.659 10.833 169.494 10.5712C169.276 10.2393 168.813 10.0733 168.112 10.0733H167.577V8.95766L173.796 8.47585V27.6172C173.796 28.5999 174.058 29.1541 174.587 29.2725C174.795 29.3266 175.105 29.3537 175.505 29.3537V30.5549H168.159V29.3537ZM158.402 23.7891C158.974 23.3029 160.002 22.9169 161.485 22.6244V24.8258C161.485 26.0717 161.294 27.017 160.921 27.6626C160.44 28.5268 159.812 28.9537 159.03 28.9537C158.566 28.9537 158.175 28.7549 157.857 28.3454C157.538 27.9353 157.376 27.3445 157.376 26.563C157.375 25.2894 157.721 24.3711 158.402 23.7891ZM155.761 17.9043C155.884 17.579 156.203 17.2675 156.721 16.9722C157.318 16.6363 157.991 16.461 158.676 16.4633C160.549 16.4633 161.486 17.3202 161.486 19.0383V21.402C158.713 21.9423 156.73 22.566 155.521 23.2708C153.949 24.1795 153.158 25.4531 153.158 27.0901C153.158 28.0537 153.453 28.8996 154.049 29.6176C154.826 30.5461 155.978 31.0082 157.505 31.0082C158.373 31.0082 159.205 30.7625 159.996 30.2624C160.733 29.8069 161.287 29.2257 161.66 28.5158V29.2433C161.681 29.8618 161.681 30.307 161.66 30.5527H167.036V29.3522H166.832C165.968 29.3522 165.537 28.76 165.537 27.5697V20.3975C165.537 16.9363 163.577 15.2036 159.668 15.2036C158.086 15.2036 156.759 15.5377 155.681 16.206C154.604 16.872 154.067 17.7442 154.067 18.8292C154.067 19.5764 154.313 20.1679 154.814 20.5978C155.231 20.9555 155.764 21.1486 156.314 21.141C156.946 21.141 157.468 20.9429 157.886 20.5473C158.309 20.1562 158.522 19.7139 158.522 19.2299C158.522 18.0301 157.881 17.4277 156.614 17.4277C156.132 17.4277 155.741 17.5819 155.449 17.8868L155.763 18.0089C155.766 17.9409 155.766 17.9043 155.761 17.9043ZM51.6799 21.3055C54.1306 21.3055 56.0893 20.8259 57.5625 19.8732C59.2265 18.808 60.0541 17.2346 60.0541 15.1451C60.0541 12.9744 59.2133 11.3579 57.531 10.2919C56.0995 9.38024 54.1628 8.92329 51.7164 8.92329H43.5696V10.1033C44.5376 10.1033 45.1378 10.1735 45.3696 10.308C45.7651 10.531 45.9647 11.1379 45.9647 12.1336V27.5083C45.9647 28.2621 45.801 28.7724 45.469 29.0356C45.1963 29.2447 44.6875 29.3449 43.9366 29.3449H43.5689V30.5461H53.262V29.3449H52.2531C51.4759 29.3449 50.948 29.2264 50.6666 28.972C50.3851 28.7264 50.244 28.2445 50.244 27.5083V21.3055H51.6799ZM55.6075 15.1612C55.6075 18.3437 54.3075 19.9347 51.7157 19.9347H50.3522V10.1808H51.7157C54.3075 10.1808 55.6075 11.8426 55.6075 15.1612ZM66.2226 18.5185C66.7863 16.3069 67.9816 15.1999 69.8182 15.1999C70.4908 15.1999 71.0275 15.382 71.4325 15.7497C71.8368 16.1175 72.0415 16.6022 72.0415 17.2091C72.0448 17.7267 71.8625 18.2283 71.5276 18.623C71.1364 19.0778 70.6458 19.3088 70.0544 19.3088C69.4907 19.3088 69.041 19.1341 68.7091 18.789C68.3911 18.4863 68.2499 18.1142 68.277 17.6726C68.277 17.6316 68.2997 17.5271 68.3362 17.3611C67.7813 18.0593 67.3456 19.2547 67.018 20.937C66.7541 22.2852 66.6181 23.5215 66.6181 24.6357V27.6085C66.6181 28.3082 66.7 28.7629 66.8542 28.972C67.0451 29.2264 67.5634 29.3449 68.3998 29.3449H68.9043V30.5461H60.7494V29.3449H61.0543C61.6136 29.3449 62.0179 29.2447 62.2636 29.0451C62.5085 28.8536 62.6269 28.363 62.6269 27.6085V21.1257C62.6269 18.8914 62.5677 17.6477 62.4449 17.3999C62.2723 16.9978 61.936 16.7974 61.4359 16.7974H61.009V15.5999H66.1187L66.2226 18.5185ZM83.1472 28.1627C83.0836 28.1999 83.02 28.2541 82.9381 28.3001L83.1472 28.1824C82.8928 28.8821 82.4241 29.5094 81.7332 30.046C80.9505 30.672 79.9762 31.0096 78.974 31.0023C77.2464 31.0023 76.0283 30.5293 75.3191 29.5745C74.7554 28.828 74.4688 27.656 74.4688 26.0644V19.8031C74.4688 18.3935 74.4052 17.571 74.2824 17.3348C74.1099 17.019 73.7048 16.8552 73.06 16.8552H72.9328V15.6028H78.5792V26.5922C78.5792 28.0464 79.1838 28.7746 80.3931 28.7746C81.3933 28.7746 82.0703 28.0837 82.4205 26.6741C82.5748 26.1104 82.6479 25.3376 82.6479 24.355V19.8089C82.6479 18.2538 82.5755 17.397 82.4249 17.231C82.207 16.9831 81.7522 16.8537 81.0562 16.8537H80.6292V15.6013H86.794V26.8181C86.794 28.0457 86.8671 28.7636 87.017 28.9552C87.2078 29.2184 87.5763 29.3456 88.1174 29.3456H88.5034V30.5461H83.0302L82.9388 28.1371L83.0302 28.1999L83.0573 28.265L83.1472 28.1627ZM95.2721 15.2584C93.2578 15.2584 91.6311 16.1226 90.3941 17.8429C89.3032 19.3754 88.7578 21.1257 88.7578 23.0982C88.7578 25.2623 89.1577 27.017 89.9759 28.3725C91.0126 30.1264 92.6167 31.0001 94.7954 31.0001C95.9133 31.0001 96.8857 30.6543 97.714 29.9634C98.3596 29.4092 98.7822 28.7995 98.9781 28.1356L98.8736 28.2175L98.7507 28.0998L98.8553 30.5461H104.215V29.3624H103.947C103.333 29.3624 102.928 29.1987 102.733 28.8806C102.579 28.6532 102.505 28.2263 102.505 27.6165V8.46927L96.232 8.94888V10.0675H96.6415C97.4325 10.0675 97.9414 10.2832 98.1746 10.7109C98.3113 10.9631 98.3932 11.5334 98.4203 12.4246C98.4203 14.8293 98.4612 16.2359 98.5431 16.6366C97.9619 15.7154 96.8666 15.2584 95.2721 15.2584ZM98.4532 21.4802V24.5085C98.4532 25.3354 98.3903 26.0263 98.2675 26.5717C97.8946 28.227 97.1035 29.0627 95.9038 29.0627C94.2215 29.0627 93.3763 27.0711 93.3763 23.0982C93.3763 21.3304 93.4772 20.0275 93.6665 19.1838C94.0518 17.5541 94.8203 16.7389 95.9666 16.7389C97.6226 16.7382 98.4532 18.3204 98.4532 21.4802ZM108.782 22.7305H117.879C117.864 20.483 117.361 18.7093 116.37 17.4138C115.252 15.9384 113.597 15.1999 111.406 15.1999C109.391 15.1999 107.724 15.9252 106.395 17.3728C105.059 18.8643 104.396 20.7645 104.396 23.0712C104.396 25.4444 104.978 27.3263 106.15 28.7183C107.405 30.2463 109.19 31.0001 111.504 31.0001C113.3 31.0001 114.813 30.337 116.041 29.0181C117.115 27.8629 117.673 26.6266 117.714 25.2996H116.201C116.186 26.2808 115.814 27.2005 115.083 28.0552C114.255 29.0371 113.269 29.5189 112.118 29.5189C110.478 29.5189 109.441 28.3462 109.014 26C108.861 25.217 108.782 24.1349 108.782 22.7305ZM111.361 16.3405C112.933 16.3405 113.724 18.052 113.724 21.4751H108.782C108.796 20.9414 108.819 20.4976 108.846 20.1416C109.054 17.609 109.892 16.3405 111.361 16.3405ZM123.794 17.5454C124.135 16.8523 124.681 16.2908 125.425 15.8543C126.171 15.4178 126.997 15.1992 127.911 15.1992C130.908 15.1992 132.406 16.8267 132.406 20.0838V26.8905C132.406 27.6443 132.412 28.0983 132.425 28.254C132.479 28.9808 132.943 29.3441 133.802 29.3441H134.116V30.5446H128.297V19.5596C128.297 18.8 128.207 18.2546 128.024 17.9226C127.762 17.4386 127.266 17.1952 126.533 17.1952C125.843 17.1952 125.288 17.5315 124.87 18.2092C124.458 18.8892 124.247 19.8886 124.247 21.2119V26.8445C124.247 28.1086 124.306 28.817 124.433 28.9537C124.683 29.2177 125.128 29.3449 125.765 29.3449H126.015V30.5461H118.432V29.3449H118.837C119.611 29.3449 120.024 28.9822 120.083 28.254C120.11 28.0822 120.124 27.5902 120.124 26.7808V19.3044C120.124 18.1427 120.038 17.4357 119.865 17.1813C119.698 16.9246 119.333 16.7974 118.78 16.7974H118.435V15.5999H123.794V17.5454ZM139.756 30.9994C137.27 30.9994 136.019 29.5891 136.019 26.7713V16.8523H133.347V15.654H133.757C135.22 15.654 136.456 14.8315 137.475 13.1762C138.347 11.7878 138.794 10.3665 138.821 8.92329H140.076V15.654H142.93V16.8523H140.076V27.2714C140.076 28.4997 140.454 29.1175 141.213 29.1175C141.881 29.1175 142.314 28.5348 142.508 27.3709C142.576 26.9527 142.613 26.1155 142.613 24.8704H144.013C144.013 26.9263 143.826 28.3337 143.458 29.0707C142.837 30.3626 141.601 30.9994 139.756 30.9994ZM18.7394 1.17929C8.20834 1.17929 1.32852 9.835 1.32852 17.8926C1.32852 22.5206 2.45591 24.8251 3.69223 27.0338C5.2517 22.8438 8.36846 14.5076 8.36846 14.5076C8.36846 14.5076 9.82046 13.7574 9.82046 13.8671L11.9137 8.54604L13.2596 7.84782L14.928 4.2997L18.5763 4.89118L25.995 9.02784L34.3232 11.3404C32.1773 5.85991 26.1039 1.17929 18.7394 1.17929ZM18.6297 36.8637C14.0631 36.8637 8.47593 35.2545 4.44382 30.3085H32.7681C29.4861 34.5548 23.8484 36.8637 18.6297 36.8637ZM24.222 29.4538H21.6397L26.4315 23.485L26.9133 24.3981L24.222 29.4538ZM26.7495 10.4784L18.5303 5.69833L15.5188 5.1595V7.36236L17.8306 9.51477L14.6049 9.24206C14.6049 9.24206 14.7094 9.40583 17.3941 12.2535L29.6498 14.2948L31.7957 15.6927L26.2129 15.961L23.9033 24.3981L16.323 29.4538H11.377L13.0454 26.1718L12.7749 26.0636L8.31289 29.4553H7.24034L11.8069 23.0536C12.0226 21.2287 11.9136 22.0344 12.1842 18.7539L11.4859 17.7888L9.65815 24.8807L5.84171 29.4545H4.87298L7.12994 26.28L10.3008 16.5547L9.49365 16.9276L8.09575 20.7981L7.12994 21.334C7.12994 21.334 4.87298 26.8167 3.69076 29.4984C1.97337 27.036 0.0366364 23.7028 0.0366364 17.8934C0.0366364 9.18723 7.50793 0 18.7394 0C29.5409 0 35.2963 8.59868 36.2599 13.0563L26.7495 10.4784ZM32.0684 23.0529L30.5045 24.3981L27.3951 29.4538H25.3494L27.3951 25.8436L29.0043 24.5071L31.3226 18.0038L33.7865 19.0244L32.0684 23.0529ZM33.5226 29.4538H29.3859L33.3047 23.2708L34.4869 19.2386L36.9596 20.0999C36.7417 23.2166 35.7232 26.3809 33.5226 29.4538ZM28.4676 22.0344L27.2313 22.2538L27.5588 19.7775L27.2313 19.2935L27.5588 16.4977L30.7231 17.7888L28.4676 22.0344ZM145.006 29.3537H145.401C145.992 29.3537 146.364 29.1621 146.514 28.7995C146.61 28.5355 146.654 27.8804 146.654 26.8262V19.0113C146.654 17.9519 146.553 17.3312 146.335 17.1425C146.126 16.9561 145.812 16.8632 145.4 16.8632H145.004V15.6649H150.709V26.8254C150.709 28.0537 150.782 28.7717 150.937 28.98C151.128 29.2345 151.483 29.3529 152.019 29.3529H152.429V30.5541H145.006V29.3537ZM146.092 11.4786C146.092 10.8037 146.329 10.2327 146.807 9.7575C147.032 9.52791 147.3 9.34644 147.597 9.22413C147.894 9.10183 148.213 9.04127 148.534 9.04612C148.856 9.04146 149.177 9.10208 149.475 9.22433C149.773 9.34658 150.044 9.52795 150.27 9.7575C150.757 10.2327 150.999 10.803 150.999 11.4786C150.999 12.1556 150.757 12.7353 150.27 13.2193C149.789 13.7099 149.212 13.9534 148.534 13.9534C147.857 13.9534 147.285 13.7099 146.807 13.2193C146.576 12.9929 146.394 12.7217 146.271 12.4225C146.148 12.1232 146.087 11.802 146.092 11.4786Z" fill="#B7C0CC"/>
</g>
<defs>
<clipPath id="clip0_2_116">
<rect width="175.541" height="36.8637" fill="white"/>
</clipPath>
</defs>
</svg>
