<svg width="135" height="35" viewBox="0 0 135 35" fill="none" xmlns="http://www.w3.org/2000/svg">
<g clip-path="url(#clip0_5_20)">
<path fill-rule="evenodd" clip-rule="evenodd" d="M43.1431 26.8687L44.8261 22.9579C46.6439 24.3172 49.0659 25.0239 51.4556 25.0239C53.2195 25.0239 54.3361 24.3442 54.3361 23.3139C54.3091 20.4334 43.7688 22.6882 43.6879 15.4653C43.6609 11.7972 46.919 8.97062 51.5365 8.97062C54.2822 8.97062 57.0224 9.65029 58.9805 11.1984L57.4054 15.1902C55.6145 14.0466 53.3867 13.2321 51.2668 13.2321C49.8265 13.2321 48.8771 13.9117 48.8771 14.7802C48.9041 17.6068 59.5254 16.0586 59.6332 22.9579C59.6332 26.7069 56.456 29.3446 51.8925 29.3446C48.5481 29.3392 45.4788 28.5517 43.1431 26.8687ZM107.771 21.5446C106.93 23.0118 105.355 24.0151 103.532 24.0151C100.84 24.0151 98.6713 21.8413 98.6713 19.1549C98.6713 16.4686 100.845 14.2947 103.532 14.2947C105.349 14.2947 106.93 15.2981 107.771 16.7653L112.416 14.1868C110.679 11.0905 107.334 8.97062 103.532 8.97062C97.9053 8.97062 93.3418 13.5341 93.3418 19.1603C93.3418 24.7865 97.9053 29.35 103.532 29.35C107.361 29.35 110.679 27.2571 112.416 24.1338L107.771 21.5446ZM61.9689 0.517853H67.7839V28.9616H61.9689V0.517853ZM114.698 0.517853V28.9616H120.513V20.428L127.412 28.9616H134.856L126.079 18.8259L134.203 9.36979H127.083L120.507 17.2184V0.517853H114.698Z" fill="#B7C0CC"/>
<path d="M85.0617 21.5985C84.2202 22.9848 82.4832 24.0151 80.5251 24.0151C77.8334 24.0151 75.6649 21.8412 75.6649 19.1549C75.6649 16.4686 77.8388 14.2947 80.5251 14.2947C82.4832 14.2947 84.2202 15.3789 85.0617 16.7922V21.5985ZM85.0617 9.37514V11.6839C84.1123 10.0818 81.7496 8.96518 79.2736 8.96518C74.1653 8.96518 70.1466 13.4748 70.1466 19.1279C70.1466 24.7811 74.1653 29.3446 79.2736 29.3446C81.7442 29.3446 84.1069 28.2334 85.0617 26.6259V28.9346H90.8766V9.37514H85.0617Z" fill="#B7C0CC"/>
<path fill-rule="evenodd" clip-rule="evenodd" d="M7.20131 21.5715C7.20131 23.5566 5.59922 25.1587 3.61414 25.1587C1.62906 25.1587 0.0269775 23.5512 0.0269775 21.5715C0.0269775 19.5919 1.62906 17.9844 3.61414 17.9844H7.20131V21.5715ZM8.99219 21.5715C8.99219 19.5865 10.5943 17.9844 12.5794 17.9844C14.5644 17.9844 16.1665 19.5865 16.1665 21.5715V30.5368C16.1665 32.5219 14.5644 34.1239 12.5794 34.1239C10.5943 34.1239 8.99219 32.5219 8.99219 30.5368V21.5715Z" fill="#B7C0CC"/>
<path fill-rule="evenodd" clip-rule="evenodd" d="M12.5794 7.17433C10.5943 7.17433 8.99219 5.57224 8.99219 3.58716C8.99219 1.60209 10.5943 0 12.5794 0C14.5644 0 16.1665 1.60209 16.1665 3.58716V7.17433H12.5794ZM12.5794 8.99219C14.5644 8.99219 16.1665 10.5943 16.1665 12.5794C16.1665 14.5644 14.5644 16.1665 12.5794 16.1665H3.58717C1.60209 16.1665 0 14.559 0 12.5794C0 10.5997 1.60209 8.99219 3.58717 8.99219H12.5794Z" fill="#B7C0CC"/>
<path fill-rule="evenodd" clip-rule="evenodd" d="M26.9496 12.5794C26.9496 10.5943 28.5517 8.99219 30.5368 8.99219C32.5218 8.99219 34.1239 10.5943 34.1239 12.5794C34.1239 14.5644 32.5218 16.1665 30.5368 16.1665H26.9496V12.5794ZM25.1587 12.5794C25.1587 14.5644 23.5566 16.1665 21.5715 16.1665C19.5865 16.1665 17.9844 14.5644 17.9844 12.5794V3.58716C17.9844 1.60209 19.5865 0 21.5715 0C23.5566 0 25.1587 1.60209 25.1587 3.58716V12.5794Z" fill="#B7C0CC"/>
<path fill-rule="evenodd" clip-rule="evenodd" d="M21.5715 26.9496C23.5566 26.9496 25.1587 28.5517 25.1587 30.5368C25.1587 32.5219 23.5566 34.1239 21.5715 34.1239C19.5865 34.1239 17.9844 32.5219 17.9844 30.5368V26.9496H21.5715ZM21.5715 25.1587C19.5865 25.1587 17.9844 23.5566 17.9844 21.5715C17.9844 19.5865 19.5865 17.9844 21.5715 17.9844H30.5637C32.5488 17.9844 34.1509 19.5865 34.1509 21.5715C34.1509 23.5566 32.5488 25.1587 30.5637 25.1587H21.5715Z" fill="#B7C0CC"/>
</g>
<defs>
<clipPath id="clip0_5_20">
<rect width="134.856" height="34.1239" fill="white"/>
</clipPath>
</defs>
</svg>
