<svg width="159" height="33" viewBox="0 0 159 33" fill="none" xmlns="http://www.w3.org/2000/svg">
<g clip-path="url(#clip0_5_205)">
<path d="M46.8301 7.43174C44.8997 6.46658 42.8729 6.08052 40.653 6.08052C38.5297 6.08052 36.5994 6.46658 34.7656 7.23871C32.9317 8.01084 31.3875 8.976 29.9397 10.3272C28.5885 11.6785 27.5268 13.2227 26.7547 14.96C25.9826 16.6973 25.5965 18.5311 25.5965 20.3649C25.5965 22.8743 26.1756 24.9977 27.3338 26.928C28.492 28.8583 30.1328 30.3061 32.1596 31.3677C34.1865 32.4294 36.3098 32.912 38.7227 32.912C40.7496 32.912 42.5834 32.5259 44.3207 31.8494C46.0579 31.1747 47.6022 30.1121 48.9534 28.8574C50.3047 27.6027 51.2698 26.0584 52.0419 24.2246C52.8141 22.3908 53.2001 20.557 53.2001 18.4336C53.2001 15.7312 52.621 13.4148 51.4628 11.581C50.3047 9.74813 48.7604 8.3969 46.8301 7.43174ZM43.9346 21.7161C43.452 22.8743 42.7764 23.743 41.9077 24.5151C41.0391 25.1907 40.0739 25.5768 38.9158 25.5768C37.5645 25.5768 36.4063 25.0942 35.6342 24.129C34.7656 23.1639 34.3795 22.0057 34.3795 20.5579C34.3795 19.5928 34.5725 18.5311 34.9586 17.3729C35.3447 16.2147 36.0203 15.2496 36.8889 14.4774C37.7576 13.7053 38.8192 13.3192 40.1705 13.3192C41.5217 13.3192 42.5834 13.8018 43.3555 14.6705C44.2241 15.5391 44.6102 16.7938 44.6102 18.3381C44.6102 19.4963 44.4172 20.6545 43.9346 21.7161ZM156.569 6.65961C155.893 6.5631 155.314 6.46658 154.639 6.37007C153.963 6.27355 153.288 6.27355 152.708 6.17703C152.033 6.08052 151.454 6.08052 150.971 6.08052C148.365 6.08052 147.014 6.27355 144.794 6.65961C142.574 7.04568 140.644 7.52826 139.003 7.91432L135.142 32.3329H143.926L147.015 12.6446C147.4 12.5481 149.137 12.2585 149.717 12.2585C150.972 12.2585 152.033 12.355 153.095 12.5481C154.157 12.7411 155.026 12.9341 155.798 13.0306L158.211 7.04664C157.727 6.85264 157.245 6.75613 156.569 6.65961ZM105.512 0L91.131 32.3329H99.1418L114.295 0H105.512ZM27.2373 6.46658H3.88039L3.01175 12.4506H13.9181L0.0197449 32.3329H23.4732L24.3418 26.1559H13.532L27.2373 6.46658ZM92.9648 9.74813H84.1818L89.7798 32.3329L94.7986 20.751L92.9648 9.74813ZM128.676 7.33523C127.035 6.46658 125.2 6.08052 123.174 6.08052C120.472 6.08052 118.059 6.75613 115.936 8.10736C113.812 9.45858 112.075 11.1959 110.917 13.5123C109.662 15.7321 109.083 18.2416 109.083 20.8475C109.083 22.5848 109.469 24.4186 110.146 26.2524C110.918 28.0862 112.269 29.6305 114.296 30.8852C116.323 32.2364 119.122 32.8155 122.596 32.8155C124.237 32.8155 125.589 32.719 126.747 32.4304C127.809 32.1408 129.257 31.6583 131.091 30.9826L132.345 24.6126C130.415 25.3847 128.774 25.9638 127.422 26.3499C126.072 26.735 124.527 26.929 122.694 26.929C119.218 26.929 117.385 25.0952 117.385 21.5241H133.793C133.986 20.1728 134.178 18.9181 134.178 17.7599C134.178 15.154 133.696 13.0306 132.634 11.1968C131.752 9.52652 130.367 8.17566 128.676 7.33523ZM126.07 16.6973V17.0834H118.156C118.735 15.5391 119.41 14.2844 120.086 13.3192C120.761 12.3541 121.727 11.8715 122.981 11.8715C125.008 11.8715 125.973 13.3192 125.973 16.2147C126.07 16.5043 126.07 16.6008 126.07 16.6973ZM76.8466 7.43174C74.9163 6.46658 72.8894 6.08052 70.6696 6.08052C68.5462 6.08052 66.6159 6.46658 64.7821 7.23871C62.9483 8.01084 61.404 8.976 59.9563 10.3272C58.605 11.6785 57.5434 13.2227 56.7712 14.96C55.9991 16.6973 55.613 18.5311 55.613 20.3649C55.613 22.8743 56.1921 24.9977 57.3503 26.928C58.5085 28.8583 60.1493 30.3061 62.1761 31.3677C64.203 32.4304 66.3263 32.913 68.7392 32.913C70.7661 32.913 72.5999 32.5269 74.3372 31.8503C76.0745 31.1757 77.6187 30.113 78.9699 28.8583C80.3202 27.6036 81.2854 26.0594 82.0575 24.2256C82.8306 22.3917 83.2157 20.5579 83.2157 18.4346C83.2157 15.7321 82.6366 13.4157 81.4784 11.5819C80.3202 9.74813 78.7769 8.3969 76.8466 7.43174ZM73.9511 21.7161C73.4685 22.8743 72.7929 23.743 71.9243 24.5151C71.0556 25.1907 70.0905 25.5768 68.9323 25.5768C67.581 25.5768 66.4229 25.0942 65.6507 24.129C64.7821 23.1639 64.396 22.0057 64.396 20.5579C64.396 19.5928 64.589 18.5311 64.9751 17.3729C65.3612 16.2147 66.0368 15.2496 66.9054 14.4774C67.7741 13.7053 68.8358 13.3192 70.2835 13.3192C71.6347 13.3192 72.6964 13.8018 73.4685 14.6705C74.3372 15.5391 74.7232 16.7938 74.7232 18.3381C74.6267 19.4963 74.4337 20.6545 73.9511 21.7161Z" fill="#B7C0CC"/>
</g>
<defs>
<clipPath id="clip0_5_205">
<rect width="158.231" height="32.912" fill="white"/>
</clipPath>
</defs>
</svg>
